<svg xmlns="http://www.w3.org/2000/svg" fill="none" viewBox="0 0 4670.28 888.12">
    <defs>
        <style>.cls-1{fill:#000;}</style>
    </defs>
    <path class="cls-1"
        d="M1865,285.29v509H1726.33V760.65c-37.64,29.72-85.17,45.56-136.66,45.56-138.65,0-251.55-111.91-251.55-266.4,0-155.48,112.9-266.39,251.55-266.39,51.49,0,99,15.84,136.66,45.54V285.29ZM1726.33,626V452.66c-30.7-34.66-72.29-51.49-114.87-51.49-76.27,0-132.71,54.46-132.71,138.64s56.44,138.65,132.71,138.65C1654,678.46,1695.63,661.62,1726.33,626Z" />
    <path class="cls-1"
        d="M2770.07,483.37v311H2631.42V513.07c0-76.25-32.68-111.9-82.2-111.9-35.65,0-73.29,17.82-106,55.46a243.7,243.7,0,0,1,1,26.74v311H2305.6V513.07c0-76.25-33.68-111.9-83.19-111.9-34.66,0-72.28,17.82-105,54.46V794.32H1978.79v-509h138.65v38.63c41.59-32.68,92.1-50.5,143.59-50.5,64.37,0,116.86,26.74,149.54,77.24,51.49-51.5,113.89-77.24,177.27-77.24C2696.78,273.42,2770.07,349.67,2770.07,483.37Z" />
    <path class="cls-1"
        d="M3406.76,539.81c0,154.49-112.91,266.4-251.54,266.4-51.51,0-99-15.84-136.67-45.56v33.67H2879.91V63.46h138.64V319c37.63-29.7,85.16-45.54,136.67-45.54C3293.85,273.42,3406.76,384.33,3406.76,539.81Zm-140.63,0c0-84.18-56.45-138.64-132.7-138.64-42.59,0-84.19,16.83-114.88,51.49V626c30.69,35.65,72.29,52.49,114.88,52.49C3209.68,678.46,3266.13,624,3266.13,539.81Z" />
    <path class="cls-1"
        d="M3475,139.72c0-45.56,37.63-84.18,86.15-84.18,46.55,0,85.17,38.62,85.17,84.18a85.17,85.17,0,0,1-85.17,85.17C3512.65,224.89,3475,187.25,3475,139.72Zm15.84,145.57h138.65v509H3490.86Z" />
    <path class="cls-1"
        d="M4095.92,782.44c-34.66,13.86-76.26,21.78-119.83,21.78-124.78,0-189.16-63.38-189.16-203V407.1h-98V285.29h98V166.46h138.65V285.29H4077.1V407.1H3925.58V584.37c0,64.38,24.75,92.11,80.22,92.11,19.8,0,45.56-4,73.28-12.87Z" />
    <path class="cls-1"
        d="M4127.58,539.81c0-154.5,114.89-266.39,271.36-266.39,157.45,0,271.34,111.89,271.34,266.39,0,153.5-113.89,266.4-271.34,266.4C4242.47,806.21,4127.58,693.31,4127.58,539.81Zm402.07,0c0-83.18-55.45-138.64-130.71-138.64-74.28,0-130.73,55.46-130.73,138.64,0,82.2,56.45,138.65,130.73,138.65C4474.2,678.46,4529.65,622,4529.65,539.81Z" />
    <path class="cls-1"
        d="M987,644c-24,41.77-67.21,66.64-115.37,66.64H410.32a44.4,44.4,0,1,1,0-88.8H871.64c23.16,0,34.67-15.63,38.5-22.16,3.84-6.68,11.51-24.44,0-44.47L589.62,0H692.06L987,510.91C1011.16,552.53,1011.16,602.26,987,644Z" />
    <path class="cls-1"
        d="M740.08,527a44.46,44.46,0,0,1-60.67-16.34L448.68,111c-11.65-20-30.83-22.16-38.5-22.16s-26.86,2.13-38.51,22.3L51.29,666.05,0,577.4,294.81,66.63A132,132,0,0,1,410.18,0c48.16,0,91.21,24.86,115.36,66.63L756.42,466.3A44.46,44.46,0,0,1,740.08,527Z" />
    <path class="cls-1"
        d="M897.5,799.32l-51.29,88.8L256.31,888c-48.17,0-91.22-24.86-115.37-66.64a131.81,131.81,0,0,1,0-133.12L371.82,288.56a44.36,44.36,0,0,1,76.86,44.32L218,732.55A43.26,43.26,0,0,0,218,777a45.25,45.25,0,0,0,11.93,13.64,43.06,43.06,0,0,0,26.43,8.52Z" />
</svg>