<svg xmlns="http://www.w3.org/2000/svg" height="40" width="40" fill="#0c4a6e"><path d="M5.667 35.542V19.167l-3 2.333-2.292-3.125L20 3.417l19.625 15-2.333 3.083-3-2.333v16.375zm8.041-10.625q-.875 0-1.479-.605-.604-.604-.604-1.479 0-.875.625-1.479.625-.604 1.5-.604t1.479.604q.604.604.604 1.479 0 .917-.604 1.5-.604.584-1.521.584zm6.25 0q-.833 0-1.458-.605-.625-.604-.625-1.52 0-.875.625-1.48.625-.604 1.5-.604.833 0 1.479.604.646.605.646 1.521 0 .875-.646 1.479-.646.605-1.521.605zm6.25 0q-.833 0-1.458-.605-.625-.604-.625-1.52 0-.875.625-1.48.625-.604 1.5-.604t1.5.604q.625.605.625 1.521 0 .875-.646 1.479-.646.605-1.521.605z"/></svg>